PathFileType	4	(X/Y/Z)	..\data\2014048\dynamic\2014048_C4_01.trc
DataRate	CameraRate	NumFrames	NumMarkers	Units	OrigDataRate	OrigDataStartFrame	OrigNumFrames
100.000000	100.000000	4	52	mm	100.000000	0	186
Frame#	Time	L_IAS			L_IPS			R_IPS			R_IAS			L_FTC			L_FLE			L_FME			L_FAX			L_TTC			L_FAL			L_TAM			L_FCC			L_FM1			L_FM2			L_FM5			R_FTC			R_FLE			R_FME			R_FAX			R_TTC			R_FAL			R_TAM			R_FCC			R_FM1			R_FM2			R_FM5			CV7			TV10			SXS			SJN			L_SIA			L_SRS			L_SAA			L_SAE			L_HLE			L_HME			L_UOA			L_RSP			L_UHE			L_HM2			L_HM5			R_SIA			R_SRS			R_SAA			R_SAE			R_HLE			R_HME			R_UOA			R_RSP			R_UHE			R_HM2			R_HM5			
		X1	Y1	Z1	X2	Y2	Z2	X3	Y3	Z3	X4	Y4	Z4	X5	Y5	Z5	X6	Y6	Z6	X7	Y7	Z7	X8	Y8	Z8	X9	Y9	Z9	X10	Y10	Z10	X11	Y11	Z11	X12	Y12	Z12	X13	Y13	Z13	X14	Y14	Z14	X15	Y15	Z15	X16	Y16	Z16	X17	Y17	Z17	X18	Y18	Z18	X19	Y19	Z19	X20	Y20	Z20	X21	Y21	Z21	X22	Y22	Z22	X23	Y23	Z23	X24	Y24	Z24	X25	Y25	Z25	X26	Y26	Z26	X27	Y27	Z27	X28	Y28	Z28	X29	Y29	Z29	X30	Y30	Z30	X31	Y31	Z31	X32	Y32	Z32	X33	Y33	Z33	X34	Y34	Z34	X35	Y35	Z35	X36	Y36	Z36	X37	Y37	Z37	X38	Y38	Z38	X39	Y39	Z39	X40	Y40	Z40	X41	Y41	Z41	X42	Y42	Z42	X43	Y43	Z43	X44	Y44	Z44	X45	Y45	Z45	X46	Y46	Z46	X47	Y47	Z47	X48	Y48	Z48	X49	Y49	Z49	X50	Y50	Z50	X51	Y51	Z51	X52	Y52	Z52	

1	0	47.49103546142579	871.9563598632815	-373.8330383300782	-155.510498046875	920.547302246094	-295.8004760742188	-148.96728515625	920.0379638671877	-188.6797485351563	59.24021911621095	877.1685791015627	-133.1329956054688	-36.81707763671876	853.9736328125002	-431.0921936035157	-96.46318817138675	428.7700805664064	-368.0964965820313	-82.9263381958008	429.9972229003907	-239.396224975586	-124.3990936279297	372.2609252929688	-367.6676635742188	-76.96182250976564	355.6720886230469	-310.0073852539063	-228.270492553711	63.34725952148439	-320.4301452636719	-198.4534454345704	81.51694488525392	-236.5182647705079	-275.9124145507813	23.03134536743164	-264.4593200683594	-84.94956207275392	25.43779945373536	-258.3348693847657	-80.17591094970705	29.59075546264649	-312.8343811035157	-141.9231872558594	13.07382106781006	-354.7012023925782	-15.00013160705567	849.5564575195315	-50.93105316162111	102.4362335205078	438.152557373047	-97.04109191894534	105.9676971435547	435.3363647460939	-232.149887084961	110.9931945800782	385.7579650878907	-93.38838958740236	167.9497833251953	397.3641357421876	-149.9503631591797	229.9478912353516	73.40657806396486	-106.3313446044922	238.3975830078126	98.74804687500003	-190.8356628417969	202.3803863525391	20.82231903076172	-156.9118957519532	369.6627502441407	74.27342224121095	-181.6456451416016	363.6958007812501	83.93441772460939	-131.8918762207032	333.3393249511719	58.74287414550783	-89.91765594482423	-92.31298828125001	1380.995361328125	-259.0456237792969	-147.936019897461	1100.864868164063	-263.4662475585938	65.07496643066408	1073.0166015625	-239.6383819580079	20.60430335998536	1295.816284179688	-247.124008178711	-161.7128601074219	1165.807250976563	-346.6546020507813	-126.5404663085938	1304.894287109375	-348.1397399902344	-74.3015594482422	1311.151611328125	-418.6727905273439	-25.21813774108887	1315.454345703125	-417.8738403320314	24.04038047790528	1017.454467773438	-515.6168212890626	-7.543157100677492	988.9902343750002	-443.5155334472657	1.613350749015809	979.5175781250002	-489.3911743164064	195.9613800048829	838.007019042969	-474.1793823242189	154.1493530273438	823.8670654296877	-539.3682861328126	251.5320587158204	766.3523559570314	-480.0625000000001	186.6451568603516	752.1185913085939	-550.4483032226564	-173.9751739501953	1155.306884765625	-181.7044982910157	-147.5390930175782	1298.55908203125	-181.0734100341797	-108.2293548583985	1303.020751953125	-100.6268615722657	-64.90853118896486	1299.783203125	-76.06605529785158	-154.1427612304688	998.098571777344	-30.45432281494141	-145.020736694336	984.705261230469	-110.7477493286133	-169.2472534179688	980.2014770507815	-67.7313690185547	-69.63706207275392	767.0793457031251	3.534565210342408	-151.3298034667969	769.0920410156252	11.35492324829102	-61.36775207519533	679.1165161132814	20.38520431518555	-159.5048065185547	693.3083496093751	16.98816299438477	
2	0.01	55.85249328613283	870.3421630859377	-373.7650146484376	-146.9609527587891	919.2384033203127	-294.4220275878907	-139.8799285888672	918.6082153320315	-187.3890075683594	68.46532440185548	875.4355468750002	-132.8217926025391	-29.01011276245118	852.679870605469	-430.3758544921876	-90.66189575195314	428.014617919922	-367.6711730957032	-75.9144744873047	428.9298706054689	-239.2249298095704	-119.2789764404297	371.8321533203126	-367.2039489746094	-71.81654357910158	354.4757080078126	-309.8305358886719	-227.6930236816407	64.38610839843751	-320.1019897460938	-197.6990814208985	82.24377441406251	-236.3329315185547	-275.8169250488282	24.79139518737794	-264.1544494628907	-84.89306640625001	25.43904876708985	-258.3107910156251	-80.17398834228517	29.57183074951173	-312.7677612304688	-142.1043395996094	13.28411865234375	-354.4561767578126	-5.494081497192384	847.7029418945315	-50.32114410400392	110.9787902832032	436.634735107422	-96.81861877441409	115.0463180541992	434.1984252929689	-231.8751373291016	119.5837554931641	384.1667785644532	-93.32147216796876	176.8496704101563	396.4011230468751	-149.5315093994141	240.4646911621094	72.82561492919923	-106.8527603149414	249.4785308837891	98.53755187988284	-191.2999725341797	213.1744384765626	20.67008972167969	-157.8496704101563	380.7381286621094	73.6513137817383	-181.3477630615235	374.3975219726563	83.11645507812501	-131.6109924316407	343.6792602539063	57.84431457519533	-89.95244598388673	-83.3369827270508	1379.531372070313	-257.9551696777344	-138.9990997314453	1099.501342773438	-261.9614257812501	73.96286773681642	1071.3193359375	-239.4163970947266	29.70316123962403	1294.33154296875	-246.6053314208985	-153.3106231689453	1164.3349609375	-345.0545349121094	-118.1234817504883	1303.500122070313	-346.8622131347657	-66.16221618652345	1309.435913085938	-417.6762084960939	-17.11876678466797	1313.677490234375	-417.2012023925782	31.98185348510743	1015.45947265625	-514.3839111328126	0.5316838026046754	987.0183105468752	-442.1655883789064	9.649498939514162	977.379577636719	-487.9659423828126	204.5182495117188	836.823425292969	-472.0830383300782	163.0295562744141	822.353698730469	-537.4077758789064	260.3924865722657	765.4644165039064	-477.5093383789064	195.9231567382813	750.7195434570314	-548.1782836914064	-164.6755676269532	1153.930053710938	-180.1802062988282	-138.1267242431641	1297.214965820313	-179.6784820556641	-98.46183013916018	1301.623291015625	-99.42038726806643	-55.01646804809572	1298.310302734375	-75.0245819091797	-145.2569580078125	996.9144287109377	-30.00513076782227	-136.0915222167969	983.539001464844	-110.2959518432617	-160.4246368408203	979.2227783203127	-67.34754943847658	-63.07212066650392	765.0594482421876	3.756199836730958	-144.6902465820313	767.8495483398439	11.40975666046143	-55.59561157226564	677.0637817382814	20.24724769592286	-153.6680603027344	692.1577758789064	16.68143844604493	
3	0.02	64.43589019775392	868.7859497070315	-373.5338745117188	-138.2462768554688	918.1070556640627	-293.0773010253907	-130.7167663574219	917.351013183594	-186.1750030517578	77.75334930419923	873.859802246094	-132.3140563964844	-20.98433876037598	851.4547119140627	-429.5506896972657	-84.77346801757814	427.4008789062501	-367.2396850585938	-69.02864837646486	428.0025634765626	-238.9931640625001	-114.0830230712891	371.5327758789063	-366.7566833496094	-66.6409378051758	353.4116516113282	-309.6194458007813	-227.0910034179688	65.64903259277345	-319.9135742187501	-196.9271392822266	83.18899536132814	-236.2558135986329	-275.7604064941407	26.80519485473634	-264.0012817382813	-84.8114471435547	25.51102447509766	-258.3393249511719	-80.12745666503908	29.58513832092286	-312.7224426269532	-142.2415466308594	13.48926734924317	-354.2476196289063	3.941550016403199	846.0311279296877	-49.62571334838869	119.9723281860352	435.4033813476564	-96.50282287597659	124.8806533813477	433.4522705078126	-231.4163360595704	128.4141387939453	382.8138427734376	-93.15120697021486	186.0052032470703	395.5245056152345	-148.957748413086	249.1479492187501	71.90496826171876	-107.2911911010742	258.9742126464844	97.92690277099612	-191.644515991211	221.8246002197266	20.46818351745606	-158.7386474609375	390.0259399414064	71.80228424072267	-180.7164154052735	383.3059082031251	81.0812225341797	-131.030517578125	351.9286804199219	55.90168380737306	-89.74276733398439	-74.28001403808595	1378.197875976563	-256.7199401855469	-129.9334106445313	1098.264404296875	-260.3946533203126	83.03132629394533	1069.716918945313	-239.1142272949219	38.89925765991212	1292.960693359375	-245.9971771240235	-144.8298645019532	1162.994995117188	-343.2999267578126	-109.6285705566407	1302.240356445313	-345.4417724609376	-57.96669387817384	1307.844360351563	-416.5530090332032	-8.970699310302736	1312.009765625	-416.4422302246095	39.6236801147461	1013.467956542969	-512.9672241210939	8.385342597961428	985.1218872070315	-440.5681457519532	17.40916633605957	975.2673339843752	-486.3128662109376	212.6799316406251	835.528747558594	-469.9592895507814	171.4097442626953	820.7388916015627	-535.3529663085939	268.7963867187501	764.4293212890626	-474.9883422851564	204.6216125488282	749.1868896484376	-545.8225097656251	-155.2689666748047	1152.66796875	-178.529769897461	-128.5989837646485	1295.99462890625	-178.1266326904297	-88.54618072509767	1300.314208984375	-98.05767822265628	-44.96113967895509	1296.9091796875	-73.8596649169922	-135.9524383544922	995.7464599609377	-29.35965538024903	-126.9190521240235	982.395202636719	-109.6692886352539	-151.2547912597657	978.2852172851565	-66.75268554687501	-56.22034454345705	763.0733642578126	3.947128295898438	-137.6990203857422	766.6444091796876	11.6378059387207	-49.54785156250001	675.0209960937501	20.07497596740723	-147.5252380371094	691.0910644531251	16.58396530151368	
4	0.03	73.25891113281251	867.3260498046877	-373.1264953613282	-129.3528289794922	917.1757812500002	-291.7711181640626	-121.4698562622071	916.3088378906252	-185.0317840576172	87.12692260742189	872.5054931640627	-131.6018218994141	-12.70774650573731	850.316833496094	-428.613250732422	-78.75423431396486	426.9542541503907	-366.7979125976563	-62.26562881469728	427.2445068359376	-238.6840057373047	-108.7683334350586	371.3860778808594	-366.3274536132813	-61.39838790893556	352.5011596679688	-309.3627014160157	-226.4473266601563	67.16873931884767	-319.8822937011719	-196.1179199218751	84.37525939941408	-236.3002624511719	-275.7319030761719	29.101224899292	-264.0161437988282	-84.69204711914064	25.6376132965088	-258.4213867187501	-80.03034973144533	29.62625122070313	-312.7035217285157	-142.3233795166016	13.68196201324463	-354.0848999023438	13.33953094482422	844.6217041015627	-48.823543548584	129.3987274169922	434.4959411621095	-96.11048889160159	135.3570556640625	433.1048889160157	-230.8006439208985	137.5050659179688	381.7467651367188	-92.88806152343751	195.3957214355469	394.7740173339845	-148.2929840087891	256.1873779296876	70.70499420166017	-107.6289825439453	266.9998168945313	96.95880889892581	-191.8635559082032	228.508041381836	20.24079895019532	-159.529052734375	397.6734313964845	68.81253051757814	-179.815414428711	390.6027832031251	77.93863677978517	-130.1987457275391	358.2911682128907	53.04468154907228	-89.31185913085939	-65.14365386962892	1377.034912109375	-255.3459930419922	-120.7370681762696	1097.18896484375	-258.7798767089844	92.2988739013672	1068.25244140625	-238.7233581542969	48.18773651123048	1291.747802734375	-245.2948760986329	-136.2604217529297	1161.829833984375	-341.4110412597657	-101.0425643920899	1301.154052734375	-343.8904113769532	-49.6942481994629	1306.42529296875	-415.3087768554689	-0.7513537406921389	1310.498901367188	-415.592498779297	46.95124435424805	1011.522277832031	-511.3665161132814	16.00528717041016	983.352478027344	-438.7223205566407	24.87603378295899	973.2356567382815	-484.4341430664064	220.4266357421876	834.154724121094	-467.8187561035157	179.2582397460938	819.047546386719	-533.2042846679689	276.7263488769532	763.2774658203126	-472.5203857421876	212.7067413330079	747.5473632812501	-543.3862915039064	-145.7570953369141	1151.556884765625	-176.7682342529297	-118.9650192260742	1294.9345703125	-176.4300231933594	-78.49583435058595	1299.131958007813	-96.54787445068362	-34.75970077514649	1295.622314453125	-72.57971954345705	-126.2357254028321	994.6323242187502	-28.52381134033204	-117.4950103759766	981.310974121094	-108.8750381469727	-141.732894897461	977.4216918945315	-65.95664215087892	-49.05478668212892	761.1586303710939	4.095143795013429	-130.3278503417969	765.5150756835939	12.05285453796387	-43.20744705200196	673.0234985351564	19.86561584472657	-141.0449523925782	690.1545410156251	16.72814369201661	
